<svg id="Diseno" xmlns="http://www.w3.org/2000/svg" viewBox="0 0 261.55 132.65"><defs><style>.cls-1{fill:#f29100;}.cls-2{fill:#fff;}</style></defs><title>logo_FTW</title><rect class="cls-1" x="1.78" y="0.9" width="103.65" height="6.09"/><path class="cls-2" d="M10.35,18.69H26.86V23.5H15.75v6.34h9.91V34.5H15.75V46.05H10.35V18.69Z"/><path class="cls-2" d="M33.64,46.05V18.69h17v4.85H39v6.41H49.42v4.63H39v6.63H50.25l0.69,4.85H33.64Z"/><path class="cls-2" d="M57.83,46.05V18.69h5.36V41.28H75.4l-1,4.77H57.83Z"/><path class="cls-2" d="M81.37,46.05V18.69h5.36V41.28H98.94l-1,4.77H81.37Z"/><path class="cls-2" d="M121.35,21.64a11.31,11.31,0,0,1,3.43,8.49v4.55a11.33,11.33,0,0,1-3.43,8.45,11.11,11.11,0,0,1-8.13,3.28,11,11,0,0,1-8.09-3.28,11.33,11.33,0,0,1-3.43-8.45V30.13a11.3,11.3,0,0,1,3.43-8.49,11.06,11.06,0,0,1,8.09-3.24A11.18,11.18,0,0,1,121.35,21.64Zm-2,8.31a7,7,0,0,0-1.82-5,6,6,0,0,0-8.6,0,7,7,0,0,0-1.82,5v4.88a6.93,6.93,0,0,0,1.82,5,5.9,5.9,0,0,0,8.6,0,6.93,6.93,0,0,0,1.82-5V29.95Z"/><path class="cls-2" d="M136.72,46.05l-7.25-27.37,0.11,0H135l4.77,18.44,0.22,3,0.18-2.3,4-18.69h5.58L154.1,38l0.15,2,0.15-2.73,4.52-18.69h5.54l-6.74,27.4h-6.78l-3.68-16.43L147.07,27l-0.18,2.66L143.5,46.05h-6.78Z"/><path class="cls-2" d="M171.56,38a12.56,12.56,0,0,0,3.57,2.62,9.09,9.09,0,0,0,4.12,1.09,6.41,6.41,0,0,0,2.77-.51,2.91,2.91,0,0,0,1.53-2.11,2.37,2.37,0,0,0,.07-0.58q0-2.22-3.21-3.24l-1.64-.51q-0.8-.26-1.46-0.51Q175.75,33.74,174,33A6.74,6.74,0,0,1,170.21,29a7.5,7.5,0,0,1-.55-2.77,7.74,7.74,0,0,1,.62-3A7.2,7.2,0,0,1,174,19.41a11.26,11.26,0,0,1,4.88-1c0.29,0,.58,0,0.87,0a16.12,16.12,0,0,1,9,3.17l-2.62,4.66a9.64,9.64,0,0,0-6.7-3.42H179q-3.39,0-3.94,2.62a4,4,0,0,0-.11.87q0,2.08,2.44,2.91l4,1.38q1.31,0.47,2.3.87,1.17,0.51,1.93.91A6.49,6.49,0,0,1,189,36a6.23,6.23,0,0,1,.4,2.22,8.61,8.61,0,0,1-.4,2.51,7.13,7.13,0,0,1-3.46,4.15,11.42,11.42,0,0,1-5.72,1.42A18.18,18.18,0,0,1,174,45.4a12.85,12.85,0,0,1-4.3-2.26Z"/><path class="cls-2" d="M196.08,46.05V18.69h5.36V30.42H212V18.69h5.36V46.05H212v-11H201.44v11h-5.36Z"/><path class="cls-2" d="M226,46.05V18.69h5.39V46.05H226Z"/><path class="cls-2" d="M240.1,46.05V18.65h10.71a8.57,8.57,0,0,1,6.45,2.7,8.71,8.71,0,0,1,2.51,6.3,9.8,9.8,0,0,1-2.48,6.78,8.28,8.28,0,0,1-6.49,2.88h-5.32v8.75H240.1ZM250,32.46a4,4,0,0,0,3.13-1.38,4.77,4.77,0,0,0,1.24-3.35,4.39,4.39,0,0,0-1.2-3.06,3.86,3.86,0,0,0-2.92-1.28h-4.74v9.07H250Z"/><path class="cls-2" d="M19.28,92.18V63.77h-9V57.65H35.51v6.11H26V92.18H19.28Z"/><path class="cls-2" d="M69,92.13a7.63,7.63,0,0,1-2.76.55q-3.22,0-5.84-3.45a18.29,18.29,0,0,1-1.56-2.57l-0.23-.37a0.49,0.49,0,0,1-.09-0.18l-0.09-.18a1.16,1.16,0,0,1-.18-0.32A2.11,2.11,0,0,0,58,85.24l-0.83-1.43a9.15,9.15,0,0,0-1.79-2.25,3.1,3.1,0,0,0-2.16-1H50.4V92.18H43.64V57.65H57.39a10.55,10.55,0,0,1,8,3.45,11.38,11.38,0,0,1,3.08,8,10.51,10.51,0,0,1-5.29,9.43l-0.32.18a1.17,1.17,0,0,1-.32.18,3.46,3.46,0,0,1-.83.41,6.76,6.76,0,0,1,1.7,2.07q0.23,0.37.69,1.24t0.69,1.2a5.14,5.14,0,0,0,1.61,1.84,2.9,2.9,0,0,0,1.52.41A4.19,4.19,0,0,0,69,86v6.16ZM50.4,74.57h5.88a5.1,5.1,0,0,0,4-1.7,5.34,5.34,0,0,0,1.38-3.72,5.55,5.55,0,0,0-1.33-3.72,4.77,4.77,0,0,0-3.72-1.65H50.4v10.8Z"/><path class="cls-2" d="M93.07,57.65l11.59,34.53H97.48l-1-3.13q-0.41-1.38-.83-2.62-0.51-1.75-1.1-3.54H84.52l-3.13,9.29H74.22L85.94,57.65h7.13Zm0,19.72-3.26-11-0.28-2.8-0.28,2.8-3.36,11h7.17Z"/><path class="cls-2" d="M123.23,92.59a12.45,12.45,0,0,1-9.52-4.6,15.14,15.14,0,0,1-3.59-10.21V72.87a16.38,16.38,0,0,1,3.54-10.57,12.29,12.29,0,0,1,9.56-4.87h0.69a14.32,14.32,0,0,1,11,4.64l-4.78,4.83-1.24-1.24a8.58,8.58,0,0,0-1.33-1,7.46,7.46,0,0,0-3.77-.87,6,6,0,0,0-5.24,2.71,11.13,11.13,0,0,0-1.7,6.34v4.32a10.76,10.76,0,0,0,1.75,6.48,6.36,6.36,0,0,0,5.47,2.57,7.08,7.08,0,0,0,3.63-1.06,17.75,17.75,0,0,0,3-2.44l4.78,4.83a16.93,16.93,0,0,1-5.15,3.63,14.85,14.85,0,0,1-6.3,1.43Z"/><path class="cls-2" d="M170.26,91.81a6.78,6.78,0,0,1-3,.69,7.21,7.21,0,0,1-1.75-.23,6.87,6.87,0,0,1-4-2.8q-2-2.8-3.82-5.52-0.83-1.19-1.75-2.62-0.74-1.06-1.88-2.8l-2.25,2.94-2,2.71v8H143V57.65h6.8v17l3.08-4,9.66-13h7.91L158.35,73.19q1.93,2.85,4.14,6,1.84,2.67,3.82,5.38a3.35,3.35,0,0,0,2.94,1.47,5.34,5.34,0,0,0,1-.09Z"/><path class="cls-2" d="M178.58,92.18V57.65h6.8V92.18h-6.8Z"/><path class="cls-2" d="M222.81,57.65V92.18h-6.16L203.6,71.12l-0.41-2.25V92.18h-6.8V57.65h6.25l13,20.74,0.41,2.16V57.65h6.76Z"/><path class="cls-2" d="M235.23,88.46a14.43,14.43,0,0,1-3.82-10.16V71.77a15.29,15.29,0,0,1,4.37-10.94,13.87,13.87,0,0,1,10.34-4.41h0.09a20.76,20.76,0,0,1,6,.87,14.47,14.47,0,0,1,5.38,3l-4.18,5.33a8.8,8.8,0,0,0-3.49-2.16,11.35,11.35,0,0,0-3.77-.64,7.38,7.38,0,0,0-5.52,2.39,9.18,9.18,0,0,0-2.44,6.57v6.39a9.23,9.23,0,0,0,2.11,6.48,6.87,6.87,0,0,0,5.33,2.16,7.17,7.17,0,0,0,5-1.84,6.58,6.58,0,0,0,2.12-5.1V78.11h-6.9l-1.06-5.88h14.71v6.71a13.4,13.4,0,0,1-3.59,9.7q-3.91,4-10.94,4A12.77,12.77,0,0,1,235.23,88.46Z"/><path class="cls-2" d="M18.33,131.32L10.6,102.15l0.12,0h5.83l5.09,19.65L21.87,125l0.19-2.45,4.23-19.93h5.94l4.62,20.2L37,125,37.17,122,42,102.11h5.9L40.7,131.32H33.48L29.56,113.8,29.36,111l-0.19,2.84-3.61,17.52H18.33Z"/><path class="cls-2" d="M75.66,131.28a6.43,6.43,0,0,1-2.33.47q-2.72,0-4.93-2.91a15.39,15.39,0,0,1-1.32-2.18l-0.19-.31a0.42,0.42,0,0,1-.08-0.16L66.73,126a1,1,0,0,1-.16-0.27,1.74,1.74,0,0,0-.16-0.31l-0.7-1.2a7.74,7.74,0,0,0-1.51-1.9,2.62,2.62,0,0,0-1.83-.82H60v9.79H54.26V102.15H65.87a8.91,8.91,0,0,1,6.8,2.91,9.62,9.62,0,0,1,2.6,6.8,8.88,8.88,0,0,1-4.47,8l-0.27.16a1,1,0,0,1-.27.16,3,3,0,0,1-.7.35A5.69,5.69,0,0,1,71,122.23q0.2,0.31.58,1t0.58,1a4.35,4.35,0,0,0,1.36,1.55,2.45,2.45,0,0,0,1.28.35,3.55,3.55,0,0,0,.85-0.12v5.2ZM60,116.44h5A4.31,4.31,0,0,0,68.32,115a4.51,4.51,0,0,0,1.17-3.15,4.69,4.69,0,0,0-1.13-3.15,4,4,0,0,0-3.15-1.4H60v9.13Z"/><path class="cls-2" d="M83.47,131.32V102.15h5.75v29.17H83.47Z"/><path class="cls-2" d="M99.74,122.78a13.39,13.39,0,0,0,3.81,2.8,9.69,9.69,0,0,0,4.39,1.17,6.83,6.83,0,0,0,3-.54,3.1,3.1,0,0,0,1.63-2.25,2.54,2.54,0,0,0,.08-0.62q0-2.37-3.42-3.46l-1.75-.54q-0.86-.27-1.55-0.54-1.67-.58-3.57-1.4a7.19,7.19,0,0,1-4-4.2,8,8,0,0,1-.58-3,8.24,8.24,0,0,1,.66-3.19,7.67,7.67,0,0,1,4-4.12,12,12,0,0,1,5.2-1.09q0.47,0,.93,0a17.19,17.19,0,0,1,9.59,3.38l-2.8,5a10.28,10.28,0,0,0-7.15-3.65h-0.47q-3.61,0-4.2,2.8a4.2,4.2,0,0,0-.12.93q0,2.21,2.6,3.11l4.31,1.48q1.4,0.51,2.45.93,1.24,0.54,2.06,1a6.92,6.92,0,0,1,3.5,3.81,6.64,6.64,0,0,1,.43,2.37,9.19,9.19,0,0,1-.43,2.68,7.6,7.6,0,0,1-3.69,4.43,12.18,12.18,0,0,1-6.1,1.52,19.39,19.39,0,0,1-6.18-1,13.7,13.7,0,0,1-4.58-2.41Z"/><path class="cls-2" d="M129.73,131.32v-24h-7.61v-5.17h21.32v5.17h-8v24h-5.71Z"/><path class="cls-2" d="M150.28,131.32V102.15h10.88a10.14,10.14,0,0,1,7,2.29,6.44,6.44,0,0,1,2.33,5,8.7,8.7,0,0,1-1,4.47,7.1,7.1,0,0,1-2.25,2.41,9.16,9.16,0,0,1,2.87,2.45,7.41,7.41,0,0,1,1.48,4.54,7.26,7.26,0,0,1-2.37,5.67,10,10,0,0,1-7,2.33H150.28Zm10.49-16.9q4,0,4-3.77a3.24,3.24,0,0,0-1.17-2.56,4.09,4.09,0,0,0-2.83-1H156v7.34h4.78Zm0.47,12q4.16,0,4.16-3.81,0-3.46-4.16-3.46H156v7.26h5.24Z"/><path class="cls-2" d="M191.22,102.15L201,131.32h-6.06l-0.82-2.64q-0.35-1.17-.7-2.21-0.43-1.48-.93-3H184l-2.64,7.85h-6.06l9.91-29.17h6Zm0,16.66-2.76-9.32-0.23-2.37L188,109.49l-2.84,9.32h6.06Z"/><path class="cls-2" d="M228.94,102.15v29.17h-5.21l-11-17.79-0.35-1.9v19.69H206.6V102.15h5.28l11,17.52,0.35,1.83V102.15h5.71Z"/><path class="cls-2" d="M237.36,102.15h11.19a10.14,10.14,0,0,1,8.31,3.85,14.38,14.38,0,0,1,2.91,9.32v3.46a13.23,13.23,0,0,1-3,8.78,10.29,10.29,0,0,1-8.31,3.77H237.36V102.15Zm5.75,24h5.28a4.71,4.71,0,0,0,4.23-2.25,9.4,9.4,0,0,0,1.24-5.13v-3.46a14.07,14.07,0,0,0-1.32-5.87,4.51,4.51,0,0,0-4.2-2.14h-5.24v18.84Z"/></svg>